<svg xmlns="http://www.w3.org/2000/svg" xmlns:xlink="http://www.w3.org/1999/xlink" width="200" zoomAndPan="magnify" viewBox="0 0 150 149.999998" height="200" preserveAspectRatio="xMidYMid meet" version="1.0"><defs><g/><clipPath id="39b4b7991d"><rect x="0" width="49" y="0" height="40"/></clipPath></defs><path fill="#545454" d="M 106.1875 10.328125 L 15.339844 10.328125 C 10.757812 10.328125 7.214844 14.078125 7.214844 18.664062 L 7.214844 92.84375 C 7.214844 97.425781 10.964844 101.175781 15.339844 101.175781 L 106.1875 101.175781 L 130.984375 55.753906 Z M 53.261719 76.171875 L 45.96875 76.171875 L 27.84375 46.167969 L 27.632812 46.167969 L 27.632812 76.171875 L 20.964844 76.171875 L 20.964844 35.542969 L 28.257812 35.542969 L 46.386719 65.546875 L 46.59375 65.546875 L 46.59375 35.542969 L 53.261719 35.542969 Z M 67.222656 76.171875 L 60.347656 76.171875 L 60.347656 35.542969 L 67.222656 35.542969 Z M 99.3125 76.171875 L 99.3125 57.835938 L 81.183594 57.835938 L 81.183594 76.171875 L 74.101562 76.171875 L 74.101562 35.542969 L 81.183594 35.542969 L 81.183594 51.792969 L 99.3125 51.792969 L 99.3125 35.542969 L 106.1875 35.542969 L 106.1875 76.171875 Z M 127.648438 15.746094 C 125.984375 12.828125 121.816406 10.328125 118.480469 10.328125 L 112.230469 10.328125 L 137.027344 55.753906 L 112.230469 101.175781 L 118.480469 101.175781 C 121.816406 101.175781 125.984375 98.675781 127.648438 95.757812 L 149.320312 55.753906 Z M 127.648438 15.746094 " fill-opacity="1" fill-rule="nonzero"/><g transform="matrix(1, 0, 0, 1, 43, 102)"><g clip-path="url(#39b4b7991d)"><g fill="#545454" fill-opacity="1"><g transform="translate(2.106777, 30.814148)"><g><path d="M 6.234375 0 L 2.046875 0 L 2.046875 -20.046875 L 16.3125 -20.046875 L 16.3125 -16.5 L 6.234375 -16.5 L 6.234375 -11.984375 L 15.0625 -11.984375 L 15.0625 -8.4375 L 6.234375 -8.4375 Z M 6.234375 0 "/></g></g></g><g fill="#545454" fill-opacity="1"><g transform="translate(19.026274, 30.814148)"><g><path d="M 6.234375 0 L 2.046875 0 L 2.046875 -20.046875 L 6.234375 -20.046875 Z M 6.234375 0 "/></g></g></g><g fill="#545454" fill-opacity="1"><g transform="translate(27.301973, 30.814148)"><g><path d="M 14.921875 -13.484375 C 14.398438 -15.796875 12.921875 -16.953125 10.484375 -16.953125 C 8.960938 -16.953125 7.75 -16.332031 6.84375 -15.09375 C 5.945312 -13.863281 5.5 -12.144531 5.5 -9.9375 C 5.5 -7.875 5.929688 -6.21875 6.796875 -4.96875 C 7.671875 -3.71875 8.898438 -3.09375 10.484375 -3.09375 C 12.878906 -3.09375 14.359375 -4.351562 14.921875 -6.875 L 19.109375 -6.875 C 18.804688 -4.820312 17.90625 -3.070312 16.40625 -1.625 C 14.90625 -0.1875 12.898438 0.53125 10.390625 0.53125 C 7.585938 0.53125 5.359375 -0.390625 3.703125 -2.234375 C 2.054688 -4.085938 1.234375 -6.675781 1.234375 -10 C 1.234375 -13.175781 2.054688 -15.734375 3.703125 -17.671875 C 5.347656 -19.609375 7.597656 -20.578125 10.453125 -20.578125 C 12.953125 -20.578125 14.972656 -19.898438 16.515625 -18.546875 C 18.054688 -17.203125 18.921875 -15.515625 19.109375 -13.484375 Z M 14.921875 -13.484375 "/></g></g></g></g></g></svg>