<svg xmlns="http://www.w3.org/2000/svg" xmlns:xlink="http://www.w3.org/1999/xlink" width="200" zoomAndPan="magnify" viewBox="0 0 150 149.999998" height="200" preserveAspectRatio="xMidYMid meet" version="1.0"><defs><g/><clipPath id="380967318d"><rect x="0" width="96" y="0" height="40"/></clipPath></defs><path fill="#545454" d="M 106.1875 10.328125 L 15.339844 10.328125 C 10.757812 10.328125 7.214844 14.078125 7.214844 18.664062 L 7.214844 92.84375 C 7.214844 97.425781 10.964844 101.175781 15.339844 101.175781 L 106.1875 101.175781 L 130.984375 55.753906 Z M 53.261719 76.171875 L 45.96875 76.171875 L 27.84375 46.167969 L 27.632812 46.167969 L 27.632812 76.171875 L 20.964844 76.171875 L 20.964844 35.542969 L 28.257812 35.542969 L 46.386719 65.546875 L 46.59375 65.546875 L 46.59375 35.542969 L 53.261719 35.542969 Z M 67.222656 76.171875 L 60.347656 76.171875 L 60.347656 35.542969 L 67.222656 35.542969 Z M 99.3125 76.171875 L 99.3125 57.835938 L 81.183594 57.835938 L 81.183594 76.171875 L 74.101562 76.171875 L 74.101562 35.542969 L 81.183594 35.542969 L 81.183594 51.792969 L 99.3125 51.792969 L 99.3125 35.542969 L 106.1875 35.542969 L 106.1875 76.171875 Z M 127.648438 15.746094 C 125.984375 12.828125 121.816406 10.328125 118.480469 10.328125 L 112.230469 10.328125 L 137.027344 55.753906 L 112.230469 101.175781 L 118.480469 101.175781 C 121.816406 101.175781 125.984375 98.675781 127.648438 95.757812 L 149.320312 55.753906 Z M 127.648438 15.746094 " fill-opacity="1" fill-rule="nonzero"/><g transform="matrix(1, 0, 0, 1, 20, 102)"><g clip-path="url(#380967318d)"><g fill="#545454" fill-opacity="1"><g transform="translate(1.594726, 30.814148)"><g><path d="M 14.484375 -20.046875 L 18.390625 -20.046875 L 18.390625 0 L 14.203125 0 L 6.015625 -14.3125 L 5.96875 -14.3125 L 5.96875 0 L 2.046875 0 L 2.046875 -20.046875 L 6.46875 -20.046875 L 14.4375 -6.078125 L 14.484375 -6.078125 Z M 14.484375 -20.046875 "/></g></g></g><g fill="#545454" fill-opacity="1"><g transform="translate(22.018087, 30.814148)"><g><path d="M 14.921875 -13.484375 C 14.398438 -15.796875 12.921875 -16.953125 10.484375 -16.953125 C 8.960938 -16.953125 7.75 -16.332031 6.84375 -15.09375 C 5.945312 -13.863281 5.5 -12.144531 5.5 -9.9375 C 5.5 -7.875 5.929688 -6.21875 6.796875 -4.96875 C 7.671875 -3.71875 8.898438 -3.09375 10.484375 -3.09375 C 12.878906 -3.09375 14.359375 -4.351562 14.921875 -6.875 L 19.109375 -6.875 C 18.804688 -4.820312 17.90625 -3.070312 16.40625 -1.625 C 14.90625 -0.1875 12.898438 0.53125 10.390625 0.53125 C 7.585938 0.53125 5.359375 -0.390625 3.703125 -2.234375 C 2.054688 -4.085938 1.234375 -6.675781 1.234375 -10 C 1.234375 -13.175781 2.054688 -15.734375 3.703125 -17.671875 C 5.347656 -19.609375 7.597656 -20.578125 10.453125 -20.578125 C 12.953125 -20.578125 14.972656 -19.898438 16.515625 -18.546875 C 18.054688 -17.203125 18.921875 -15.515625 19.109375 -13.484375 Z M 14.921875 -13.484375 "/></g></g></g><g fill="#545454" fill-opacity="1"><g transform="translate(41.732365, 30.814148)"><g><path d="M 7.265625 -7.59375 L 12.390625 -7.59375 L 9.890625 -15.53125 L 9.828125 -15.53125 Z M 4.765625 0 L 0.34375 0 L 7.484375 -20.046875 L 12.328125 -20.046875 L 19.390625 0 L 14.84375 0 L 13.5625 -4.140625 L 6.15625 -4.140625 Z M 4.765625 0 "/></g></g></g><g fill="#545454" fill-opacity="1"><g transform="translate(58.719253, 30.814148)"><g><path d="M 10.65625 0 L 6.46875 0 L 6.46875 -16.5 L 0.40625 -16.5 L 0.40625 -20.046875 L 16.71875 -20.046875 L 16.71875 -16.5 L 10.65625 -16.5 Z M 10.65625 0 "/></g></g></g><g fill="#545454" fill-opacity="1"><g transform="translate(75.284102, 30.814148)"><g><path d="M 5.1875 -6.171875 C 5.1875 -5.179688 5.550781 -4.394531 6.28125 -3.8125 C 7.007812 -3.226562 8.054688 -2.9375 9.421875 -2.9375 C 10.785156 -2.9375 11.820312 -3.15625 12.53125 -3.59375 C 13.25 -4.03125 13.609375 -4.675781 13.609375 -5.53125 C 13.609375 -6.039062 13.425781 -6.484375 13.0625 -6.859375 C 12.695312 -7.234375 11.820312 -7.582031 10.4375 -7.90625 L 7.03125 -8.703125 C 4.875 -9.210938 3.40625 -9.90625 2.625 -10.78125 C 1.84375 -11.65625 1.453125 -12.867188 1.453125 -14.421875 C 1.453125 -16.234375 2.09375 -17.710938 3.375 -18.859375 C 4.664062 -20.003906 6.601562 -20.578125 9.1875 -20.578125 C 11.738281 -20.578125 13.675781 -19.929688 15 -18.640625 C 16.320312 -17.347656 16.988281 -15.835938 17 -14.109375 L 12.96875 -14.109375 C 12.882812 -15.085938 12.503906 -15.832031 11.828125 -16.34375 C 11.148438 -16.863281 10.160156 -17.125 8.859375 -17.125 C 7.816406 -17.125 6.972656 -16.90625 6.328125 -16.46875 C 5.691406 -16.039062 5.375 -15.457031 5.375 -14.71875 C 5.375 -14.207031 5.515625 -13.785156 5.796875 -13.453125 C 6.078125 -13.117188 6.53125 -12.875 7.15625 -12.71875 L 12.515625 -11.390625 C 14.453125 -10.921875 15.789062 -10.238281 16.53125 -9.34375 C 17.269531 -8.457031 17.640625 -7.351562 17.640625 -6.03125 C 17.640625 -3.84375 16.878906 -2.203125 15.359375 -1.109375 C 13.847656 -0.015625 11.972656 0.53125 9.734375 0.53125 C 6.847656 0.53125 4.695312 -0.0820312 3.28125 -1.3125 C 1.863281 -2.550781 1.15625 -4.171875 1.15625 -6.171875 Z M 5.1875 -6.171875 "/></g></g></g></g></g></svg>