<svg xmlns="http://www.w3.org/2000/svg" xmlns:xlink="http://www.w3.org/1999/xlink" width="200" zoomAndPan="magnify" viewBox="0 0 150 149.999998" height="200" preserveAspectRatio="xMidYMid meet" version="1.0"><defs><g/><clipPath id="e7feb4632c"><rect x="0" width="93" y="0" height="40"/></clipPath></defs><path fill="#545454" d="M 106.1875 10.328125 L 15.339844 10.328125 C 10.757812 10.328125 7.214844 14.078125 7.214844 18.664062 L 7.214844 92.84375 C 7.214844 97.425781 10.964844 101.175781 15.339844 101.175781 L 106.1875 101.175781 L 130.984375 55.753906 Z M 53.261719 76.171875 L 45.96875 76.171875 L 27.84375 46.167969 L 27.632812 46.167969 L 27.632812 76.171875 L 20.964844 76.171875 L 20.964844 35.542969 L 28.257812 35.542969 L 46.386719 65.546875 L 46.59375 65.546875 L 46.59375 35.542969 L 53.261719 35.542969 Z M 67.222656 76.171875 L 60.347656 76.171875 L 60.347656 35.542969 L 67.222656 35.542969 Z M 99.3125 76.171875 L 99.3125 57.835938 L 81.183594 57.835938 L 81.183594 76.171875 L 74.101562 76.171875 L 74.101562 35.542969 L 81.183594 35.542969 L 81.183594 51.792969 L 99.3125 51.792969 L 99.3125 35.542969 L 106.1875 35.542969 L 106.1875 76.171875 Z M 127.648438 15.746094 C 125.984375 12.828125 121.816406 10.328125 118.480469 10.328125 L 112.230469 10.328125 L 137.027344 55.753906 L 112.230469 101.175781 L 118.480469 101.175781 C 121.816406 101.175781 125.984375 98.675781 127.648438 95.757812 L 149.320312 55.753906 Z M 127.648438 15.746094 " fill-opacity="1" fill-rule="nonzero"/><g transform="matrix(1, 0, 0, 1, 21, 102)"><g clip-path="url(#e7feb4632c)"><g fill="#545454" fill-opacity="1"><g transform="translate(1.489799, 30.814148)"><g><path d="M 14.484375 -20.046875 L 18.390625 -20.046875 L 18.390625 0 L 14.203125 0 L 6.015625 -14.3125 L 5.96875 -14.3125 L 5.96875 0 L 2.046875 0 L 2.046875 -20.046875 L 6.46875 -20.046875 L 14.4375 -6.078125 L 14.484375 -6.078125 Z M 14.484375 -20.046875 "/></g></g></g><g fill="#545454" fill-opacity="1"><g transform="translate(21.91316, 30.814148)"><g><path d="M 18.25 -20.046875 L 18.25 0 L 14.0625 0 L 14.0625 -8.984375 L 6.234375 -8.984375 L 6.234375 0 L 2.046875 0 L 2.046875 -20.046875 L 6.234375 -20.046875 L 6.234375 -12.453125 L 14.0625 -12.453125 L 14.0625 -20.046875 Z M 18.25 -20.046875 "/></g></g></g><g fill="#545454" fill-opacity="1"><g transform="translate(42.200184, 30.814148)"><g><path d="M 11.546875 -10.8125 L 19.921875 -10.8125 L 19.921875 0 L 17.125 0 L 16.703125 -2.515625 C 15.160156 -0.484375 13.050781 0.53125 10.375 0.53125 C 7.6875 0.53125 5.488281 -0.425781 3.78125 -2.34375 C 2.082031 -4.257812 1.234375 -6.800781 1.234375 -9.96875 C 1.234375 -13.144531 2.109375 -15.707031 3.859375 -17.65625 C 5.617188 -19.601562 8.007812 -20.578125 11.03125 -20.578125 C 13.625 -20.578125 15.691406 -19.925781 17.234375 -18.625 C 18.785156 -17.320312 19.648438 -15.722656 19.828125 -13.828125 L 15.65625 -13.828125 C 15.40625 -14.828125 14.875 -15.625 14.0625 -16.21875 C 13.257812 -16.820312 12.320312 -17.125 11.25 -17.125 C 9.457031 -17.125 8.050781 -16.476562 7.03125 -15.1875 C 6.007812 -13.90625 5.5 -12.15625 5.5 -9.9375 C 5.5 -7.71875 5.988281 -6.007812 6.96875 -4.8125 C 7.957031 -3.613281 9.414062 -3.015625 11.34375 -3.015625 C 12.414062 -3.015625 13.398438 -3.363281 14.296875 -4.0625 C 15.203125 -4.757812 15.835938 -5.882812 16.203125 -7.4375 L 11.546875 -7.4375 Z M 11.546875 -10.8125 "/></g></g></g><g fill="#545454" fill-opacity="1"><g transform="translate(64.014188, 30.814148)"><g><path d="M 11.0625 -11.234375 C 12.164062 -11.234375 12.984375 -11.441406 13.515625 -11.859375 C 14.046875 -12.273438 14.3125 -12.976562 14.3125 -13.96875 C 14.3125 -14.789062 14.0625 -15.429688 13.5625 -15.890625 C 13.070312 -16.359375 12.34375 -16.59375 11.375 -16.59375 L 6.15625 -16.59375 L 6.15625 -11.234375 Z M 2.046875 -20.046875 L 12.1875 -20.046875 C 14.25 -20.046875 15.816406 -19.492188 16.890625 -18.390625 C 17.960938 -17.285156 18.5 -15.953125 18.5 -14.390625 C 18.5 -12.066406 17.46875 -10.472656 15.40625 -9.609375 C 16.351562 -9.253906 17.007812 -8.734375 17.375 -8.046875 C 17.75 -7.359375 17.9375 -6.117188 17.9375 -4.328125 C 17.9375 -2.546875 18 -1.492188 18.125 -1.171875 C 18.257812 -0.859375 18.492188 -0.644531 18.828125 -0.53125 L 18.828125 0 L 14.203125 0 C 13.898438 -0.894531 13.75 -2.195312 13.75 -3.90625 C 13.75 -5.332031 13.648438 -6.25 13.453125 -6.65625 C 13.265625 -7.070312 12.953125 -7.375 12.515625 -7.5625 C 12.078125 -7.75 11.398438 -7.84375 10.484375 -7.84375 L 6.15625 -7.84375 L 6.15625 0 L 2.046875 0 Z M 2.046875 -20.046875 "/></g></g></g><g fill="#545454" fill-opacity="1"><g transform="translate(83.851308, 30.814148)"><g><path d="M 6.234375 0 L 2.046875 0 L 2.046875 -20.046875 L 6.234375 -20.046875 Z M 6.234375 0 "/></g></g></g></g></g></svg>