<svg xmlns="http://www.w3.org/2000/svg" xmlns:xlink="http://www.w3.org/1999/xlink" width="200" zoomAndPan="magnify" viewBox="0 0 150 149.999998" height="200" preserveAspectRatio="xMidYMid meet" version="1.0"><defs><g/><clipPath id="0b7bd0fd30"><rect x="0" width="88" y="0" height="40"/></clipPath></defs><path fill="#545454" d="M 106.1875 10.328125 L 15.339844 10.328125 C 10.757812 10.328125 7.214844 14.078125 7.214844 18.664062 L 7.214844 92.84375 C 7.214844 97.425781 10.964844 101.175781 15.339844 101.175781 L 106.1875 101.175781 L 130.984375 55.753906 Z M 53.261719 76.171875 L 45.96875 76.171875 L 27.84375 46.167969 L 27.632812 46.167969 L 27.632812 76.171875 L 20.964844 76.171875 L 20.964844 35.542969 L 28.257812 35.542969 L 46.386719 65.546875 L 46.59375 65.546875 L 46.59375 35.542969 L 53.261719 35.542969 Z M 67.222656 76.171875 L 60.347656 76.171875 L 60.347656 35.542969 L 67.222656 35.542969 Z M 99.3125 76.171875 L 99.3125 57.835938 L 81.183594 57.835938 L 81.183594 76.171875 L 74.101562 76.171875 L 74.101562 35.542969 L 81.183594 35.542969 L 81.183594 51.792969 L 99.3125 51.792969 L 99.3125 35.542969 L 106.1875 35.542969 L 106.1875 76.171875 Z M 127.648438 15.746094 C 125.984375 12.828125 121.816406 10.328125 118.480469 10.328125 L 112.230469 10.328125 L 137.027344 55.753906 L 112.230469 101.175781 L 118.480469 101.175781 C 121.816406 101.175781 125.984375 98.675781 127.648438 95.757812 L 149.320312 55.753906 Z M 127.648438 15.746094 " fill-opacity="1" fill-rule="nonzero"/><g transform="matrix(1, 0, 0, 1, 24, 102)"><g clip-path="url(#0b7bd0fd30)"><g fill="#545454" fill-opacity="1"><g transform="translate(1.131357, 30.814148)"><g><path d="M 14.484375 -20.046875 L 18.390625 -20.046875 L 18.390625 0 L 14.203125 0 L 6.015625 -14.3125 L 5.96875 -14.3125 L 5.96875 0 L 2.046875 0 L 2.046875 -20.046875 L 6.46875 -20.046875 L 14.4375 -6.078125 L 14.484375 -6.078125 Z M 14.484375 -20.046875 "/></g></g></g><g fill="#545454" fill-opacity="1"><g transform="translate(21.554718, 30.814148)"><g><path d="M 18.25 -20.046875 L 18.25 0 L 14.0625 0 L 14.0625 -8.984375 L 6.234375 -8.984375 L 6.234375 0 L 2.046875 0 L 2.046875 -20.046875 L 6.234375 -20.046875 L 6.234375 -12.453125 L 14.0625 -12.453125 L 14.0625 -20.046875 Z M 18.25 -20.046875 "/></g></g></g><g fill="#545454" fill-opacity="1"><g transform="translate(41.841742, 30.814148)"><g><path d="M 6.234375 -3.625 L 16.203125 -3.625 L 16.203125 0 L 2.046875 0 L 2.046875 -20.046875 L 6.234375 -20.046875 Z M 6.234375 -3.625 "/></g></g></g><g fill="#545454" fill-opacity="1"><g transform="translate(58.515832, 30.814148)"><g><path d="M 6.078125 -12.203125 L 10.984375 -12.203125 C 11.929688 -12.203125 12.660156 -12.394531 13.171875 -12.78125 C 13.679688 -13.175781 13.9375 -13.734375 13.9375 -14.453125 C 13.9375 -15.160156 13.703125 -15.691406 13.234375 -16.046875 C 12.765625 -16.410156 11.976562 -16.59375 10.875 -16.59375 L 6.078125 -16.59375 Z M 6.078125 -3.46875 L 11.203125 -3.46875 C 12.222656 -3.46875 13.015625 -3.695312 13.578125 -4.15625 C 14.140625 -4.625 14.421875 -5.367188 14.421875 -6.390625 C 14.421875 -7.140625 14.148438 -7.734375 13.609375 -8.171875 C 13.078125 -8.609375 12.34375 -8.828125 11.40625 -8.828125 L 6.078125 -8.828125 Z M 2.046875 -20.046875 L 11.78125 -20.046875 C 13.789062 -20.046875 15.320312 -19.5625 16.375 -18.59375 C 17.4375 -17.625 17.96875 -16.398438 17.96875 -14.921875 C 17.96875 -12.878906 17.148438 -11.507812 15.515625 -10.8125 C 17.578125 -10.019531 18.609375 -8.398438 18.609375 -5.953125 C 18.609375 -5.148438 18.453125 -4.390625 18.140625 -3.671875 C 17.835938 -2.953125 17.363281 -2.285156 16.71875 -1.671875 C 16.082031 -1.054688 15.316406 -0.625 14.421875 -0.375 C 13.535156 -0.125 12.238281 0 10.53125 0 L 2.046875 0 Z M 2.046875 -20.046875 "/></g></g></g><g fill="#545454" fill-opacity="1"><g transform="translate(78.202971, 30.814148)"><g><path d="M 6.234375 0 L 2.046875 0 L 2.046875 -20.046875 L 6.234375 -20.046875 Z M 6.234375 0 "/></g></g></g></g></g></svg>