<svg xmlns="http://www.w3.org/2000/svg" xmlns:xlink="http://www.w3.org/1999/xlink" width="200" zoomAndPan="magnify" viewBox="0 0 150 149.999998" height="200" preserveAspectRatio="xMidYMid meet" version="1.0"><defs><g/><clipPath id="c4b1588539"><rect x="0" width="96" y="0" height="40"/></clipPath></defs><path fill="#545454" d="M 106.1875 10.328125 L 15.339844 10.328125 C 10.757812 10.328125 7.214844 14.078125 7.214844 18.664062 L 7.214844 92.84375 C 7.214844 97.425781 10.964844 101.175781 15.339844 101.175781 L 106.1875 101.175781 L 130.984375 55.753906 Z M 53.261719 76.171875 L 45.96875 76.171875 L 27.84375 46.167969 L 27.632812 46.167969 L 27.632812 76.171875 L 20.964844 76.171875 L 20.964844 35.542969 L 28.257812 35.542969 L 46.386719 65.546875 L 46.59375 65.546875 L 46.59375 35.542969 L 53.261719 35.542969 Z M 67.222656 76.171875 L 60.347656 76.171875 L 60.347656 35.542969 L 67.222656 35.542969 Z M 99.3125 76.171875 L 99.3125 57.835938 L 81.183594 57.835938 L 81.183594 76.171875 L 74.101562 76.171875 L 74.101562 35.542969 L 81.183594 35.542969 L 81.183594 51.792969 L 99.3125 51.792969 L 99.3125 35.542969 L 106.1875 35.542969 L 106.1875 76.171875 Z M 127.648438 15.746094 C 125.984375 12.828125 121.816406 10.328125 118.480469 10.328125 L 112.230469 10.328125 L 137.027344 55.753906 L 112.230469 101.175781 L 118.480469 101.175781 C 121.816406 101.175781 125.984375 98.675781 127.648438 95.757812 L 149.320312 55.753906 Z M 127.648438 15.746094 " fill-opacity="1" fill-rule="nonzero"/><g transform="matrix(1, 0, 0, 1, 20, 102)"><g clip-path="url(#c4b1588539)"><g fill="#545454" fill-opacity="1"><g transform="translate(1.398246, 30.814148)"><g><path d="M 14.484375 -20.046875 L 18.390625 -20.046875 L 18.390625 0 L 14.203125 0 L 6.015625 -14.3125 L 5.96875 -14.3125 L 5.96875 0 L 2.046875 0 L 2.046875 -20.046875 L 6.46875 -20.046875 L 14.4375 -6.078125 L 14.484375 -6.078125 Z M 14.484375 -20.046875 "/></g></g></g><g fill="#545454" fill-opacity="1"><g transform="translate(21.821607, 30.814148)"><g><path d="M 6.234375 0 L 2.046875 0 L 2.046875 -20.046875 L 6.234375 -20.046875 Z M 6.234375 0 "/></g></g></g><g fill="#545454" fill-opacity="1"><g transform="translate(30.097306, 30.814148)"><g><path d="M 21.5 0 L 17.578125 0 L 17.578125 -13.546875 L 17.640625 -16.765625 L 17.53125 -16.765625 L 13.78125 0 L 9.671875 0 L 6.015625 -16.765625 L 5.921875 -16.765625 L 5.96875 -13.546875 L 5.96875 0 L 2.046875 0 L 2.046875 -20.046875 L 8.171875 -20.046875 L 11.78125 -4.25 L 11.875 -4.25 L 15.421875 -20.046875 L 21.5 -20.046875 Z M 21.5 0 "/></g></g></g><g fill="#545454" fill-opacity="1"><g transform="translate(53.629162, 30.814148)"><g><path d="M 18.25 -20.046875 L 18.25 0 L 14.0625 0 L 14.0625 -8.984375 L 6.234375 -8.984375 L 6.234375 0 L 2.046875 0 L 2.046875 -20.046875 L 6.234375 -20.046875 L 6.234375 -12.453125 L 14.0625 -12.453125 L 14.0625 -20.046875 Z M 18.25 -20.046875 "/></g></g></g><g fill="#545454" fill-opacity="1"><g transform="translate(73.916186, 30.814148)"><g><path d="M 6.15625 -3.46875 L 10.234375 -3.46875 C 11.671875 -3.46875 12.785156 -4.066406 13.578125 -5.265625 C 14.378906 -6.460938 14.78125 -8.109375 14.78125 -10.203125 C 14.78125 -12.359375 14.410156 -13.960938 13.671875 -15.015625 C 12.941406 -16.066406 11.820312 -16.59375 10.3125 -16.59375 L 6.15625 -16.59375 Z M 2.046875 -20.046875 L 10.90625 -20.046875 C 13.613281 -20.046875 15.648438 -19.164062 17.015625 -17.40625 C 18.378906 -15.65625 19.0625 -13.351562 19.0625 -10.5 C 19.0625 -7.351562 18.332031 -4.816406 16.875 -2.890625 C 15.425781 -0.960938 13.378906 0 10.734375 0 L 2.046875 0 Z M 2.046875 -20.046875 "/></g></g></g></g></g></svg>